<?xml version="1.0" encoding="utf-8"?>
<!-- Generator: Adobe Illustrator 26.0.3, SVG Export Plug-In . SVG Version: 6.00 Build 0)  -->
<svg version="1.1" id="Layer_1" xmlns="http://www.w3.org/2000/svg" xmlns:xlink="http://www.w3.org/1999/xlink" x="0px" y="0px"
	 viewBox="0 0 444.1 79.3" style="enable-background:new 0 0 444.1 79.3;" xml:space="preserve">
<style type="text/css">
	.st0{clip-path:url(#SVGID_00000029006004698973869230000011724935312224043952_);}
	.st1{fill:#FFFFFF;}
	.st2{clip-path:url(#SVGID_00000046307976645651102380000008516656598525738429_);}
	.st3{clip-path:url(#SVGID_00000129193110237785328030000015026176226186899370_);}
</style>
<g>
	<g>
		<g>
		</g>
		<g>
			<defs>
				<rect id="SVGID_1_" y="34" width="88" height="45.3"/>
			</defs>
			<clipPath id="SVGID_00000145742055079588445390000004301409919035370419_">
				<use xlink:href="#SVGID_1_"  style="overflow:visible;"/>
			</clipPath>
			<g style="clip-path:url(#SVGID_00000145742055079588445390000004301409919035370419_);">
				<path class="st1" d="M87.3,35.5c0-0.1,0-0.3-0.1-0.4C87.1,35,87,35,86.8,35H0.5c-0.1,0-0.3,0.1-0.4,0.2C0,35.2,0,35.4,0,35.5
					c0,0.4,3,38.9,36.7,43.4c2.1,0.3,4.3,0.4,6.6,0.4c2.1,0,4.1-0.1,6-0.4C82.8,74.7,87.3,35.9,87.3,35.5"/>
			</g>
		</g>
	</g>
	<path class="st1" d="M20.5,0c-5.5,0-10,4.5-10,10s4.5,10,10,10s10-4.5,10-10S26,0,20.5,0"/>
	<path class="st1" d="M66.5,0c-5.5,0-10,4.5-10,10s4.5,10,10,10s10-4.5,10-10S72,0,66.5,0"/>
	<path class="st1" d="M116.3,57.7c1.3,0.2,3.2,0.3,5.5,0.3c6.8,0,13-2.5,13-9.9c0-6.9-5.9-9.8-13.1-9.8h-5.4V57.7z M116.3,33.4h6
		c6.9,0,11-3.6,11-8.5c0-5.9-4.5-8.3-11.1-8.3c-3,0-4.7,0.2-5.8,0.5L116.3,33.4L116.3,33.4z M109.7,12.6c2.9-0.6,7.4-1.1,12-1.1
		c6.6,0,10.8,1.1,13.9,3.7c2.6,2,4.2,5,4.2,9c0,4.9-3.2,9.2-8.6,11.1v0.1c4.8,1.2,10.5,5.2,10.5,12.7c0,4.4-1.7,7.7-4.3,10.2
		c-3.5,3.2-9.3,4.7-17.6,4.7c-4.5,0-8-0.3-10.2-0.6V12.6"/>
	<path class="st1" d="M150.3,62.7V26.2h6.6v36.5H150.3z M157.7,16c0.1,2.3-1.6,4.1-4.2,4.1c-2.3,0-4-1.8-4-4.1s1.7-4.1,4.1-4.1
		C156.1,11.8,157.7,13.6,157.7,16"/>
	<path class="st1" d="M174.5,42.9h0.2c0.9-1.3,2.2-2.9,3.2-4.1l10.7-12.6h8l-14.1,15l16,21.5h-8.1l-12.6-17.5l-3.4,3.8v13.7h-6.6
		V9.2h6.6v33.7"/>
	<path class="st1" d="M204.6,37.6c0-4.3-0.1-8-0.3-11.4h5.8l0.2,7.2h0.3c1.7-4.9,5.6-8,10.1-8c0.8,0,1.3,0.1,1.9,0.2v6.3
		c-0.7-0.2-1.4-0.2-2.3-0.2c-4.7,0-8,3.5-8.9,8.5c-0.1,0.9-0.3,2-0.3,3.1v19.4h-6.6V37.6"/>
	<path class="st1" d="M232.5,44.5c0,8,4.6,14,11.1,14c6.3,0,11.1-6,11.1-14.2c0-6.2-3.1-14-10.9-14S232.5,37.6,232.5,44.5z
		 M261.4,44.1c0,13.5-9.3,19.4-18.2,19.4c-9.9,0-17.5-7.2-17.5-18.8c0-12.2,8-19.4,18.1-19.4C254.3,25.4,261.4,33,261.4,44.1"/>
	<g>
		<g>
			<defs>
				<rect id="SVGID_00000049184928287868837280000011731440224258228871_" x="264" y="26" width="35" height="53.3"/>
			</defs>
			<clipPath id="SVGID_00000160157096803109052020000004779322727108656533_">
				<use xlink:href="#SVGID_00000049184928287868837280000011731440224258228871_"  style="overflow:visible;"/>
			</clipPath>
			<g style="clip-path:url(#SVGID_00000160157096803109052020000004779322727108656533_);">
				<path class="st1" d="M271.7,26.2l8,21.5c0.8,2.4,1.7,5.3,2.3,7.5h0.2c0.7-2.2,1.4-5,2.3-7.6l7.2-21.4h7l-9.9,26
					c-4.7,12.5-8,18.9-12.5,22.8c-3.2,2.9-6.5,4-8.1,4.3l-1.7-5.6c1.7-0.5,3.8-1.6,5.8-3.2c1.8-1.4,4.1-4,5.6-7.4
					c0.3-0.7,0.5-1.2,0.5-1.6c0-0.4-0.1-0.9-0.4-1.7l-13.5-33.6L271.7,26.2"/>
			</g>
		</g>
	</g>
	<path class="st1" d="M300.2,58.7c0-2.8,1.9-4.7,4.5-4.7s4.4,2,4.4,4.7s-1.7,4.8-4.5,4.8C302,63.5,300.2,61.5,300.2,58.7"/>
	<path class="st1" d="M343.4,61.3c-1.7,0.9-5.6,2.1-10.5,2.1c-11,0-18.2-7.5-18.2-18.6c0-11.2,7.7-19.4,19.6-19.4
		c3.9,0,7.4,1,9.2,1.9l-1.5,5.1c-1.6-0.9-4.1-1.7-7.7-1.7c-8.4,0-12.9,6.2-12.9,13.8c0,8.4,5.4,13.6,12.7,13.6c3.8,0,6.3-1,8.1-1.8
		L343.4,61.3"/>
	<path class="st1" d="M354.8,44.5c0,8,4.6,14,11.1,14c6.3,0,11.1-6,11.1-14.2c0-6.2-3.1-14-10.9-14
		C358.1,30.3,354.8,37.6,354.8,44.5z M383.7,44.1c0,13.5-9.3,19.4-18.2,19.4c-9.9,0-17.5-7.2-17.5-18.8c0-12.2,8-19.4,18.1-19.4
		C376.6,25.4,383.7,33,383.7,44.1"/>
	<g>
		<g>
			<defs>
				<rect id="SVGID_00000008146778921474570600000006142168063348218498_" x="391" y="25" width="53.1" height="38"/>
			</defs>
			<clipPath id="SVGID_00000137109848575881047830000007562475053868700056_">
				<use xlink:href="#SVGID_00000008146778921474570600000006142168063348218498_"  style="overflow:visible;"/>
			</clipPath>
			<g style="clip-path:url(#SVGID_00000137109848575881047830000007562475053868700056_);">
				<path class="st1" d="M392,36.1c0-3.8-0.1-6.9-0.3-9.9h5.8l0.3,5.9h0.2c2-3.5,5.4-6.7,11.4-6.7c5,0,8.7,3,10.3,7.3h0.2
					c1.1-2,2.6-3.6,4.1-4.7c2.2-1.7,4.6-2.6,8.1-2.6c4.8,0,12,3.2,12,15.8v21.5h-6.5V42c0-7-2.6-11.2-7.9-11.2c-3.8,0-6.7,2.8-7.8,6
					c-0.3,0.9-0.5,2.1-0.5,3.3v22.5h-6.5V40.8c0-5.8-2.6-10-7.6-10c-4.1,0-7.2,3.3-8.2,6.6c-0.4,1-0.5,2.1-0.5,3.2v22H392V36.1"/>
			</g>
		</g>
	</g>
</g>
</svg>
